<?xml version="1.0" encoding="UTF-8"?>
<svg xmlns="http://www.w3.org/2000/svg" version="1.1" viewBox="0 0 1024 1024">
  <defs>
    <style>
      .cls-1 {
        fill: #fdc901;
      }

      .cls-2 {
        fill: #e33913;
      }

      .cls-3 {
        fill: none;
        stroke: #456eb5;
        stroke-miterlimit: 10;
        stroke-width: 7px;
      }
    </style>
  </defs>
  <!-- Generator: Adobe Illustrator 28.7.1, SVG Export Plug-In . SVG Version: 1.2.0 Build 142)  -->
  <g>
    <g id="Layer_1">
      <g>
        <path class="cls-2" d="M726,819.4c0-17.5-.2-35.1,0-52.6,1.1-72.7,50.6-136.4,113.5-134.4-9.6,24.4,1.5,42.2,0,50.8-69.7,15.4-69.3,66.8-69.2,136.2-14.1-2.2-30,0-44.3,0Z"/>
        <path class="cls-2" d="M178.4,635.2c64.2-2.4,118.6,44.2,120,124.5.4,19.9,0,39.9,0,59.7-7.8-1.4-34.6-1-42.8,0v-52.9c0-38.6-22.6-76-56.6-80-7.6-.9-15.8,0-23.5.1,3.1-20.8,9.3-25.8,2.9-51.4Z"/>
        <path class="cls-1" d="M175.6,686.6c-3.9,15.4-22.7,27-35.4,29.4-10,1.9-77.5,1.9-87.1-1.1-54.6-16.9-49.9-108.6,5.6-117.6,10.6-1.7,26.4-.2,37.5-.2,37.6.1,61.5-7.2,82.3,38.1,6.4,25.7.2,30.6-2.9,51.4Z"/>
        <path class="cls-1" d="M839.6,632.3c26.2-40.4,40-35.4,78.4-35.3,16.4,0,35.1-1.9,51.2,2.1,56.5,14,52.6,110.7-4.9,117.5-13.1,1.5-26.9.2-40.1.2-31.1,0-59.7,6.6-80.3-26.7-1.2-2-2.6-5.5-4.2-6.9,1.5-8.7-9.6-26.4,0-50.8Z"/>
        <path class="cls-2" d="M456.9,157.7l1.1-.3c33.9,72.2,79.5,65.8,110.7-7.4v669.4c-9.9-3.3-37.3,0-48.7,0h-40.2c-7.3-.2-15.9-3.1-22.9,0V230.1c0-24,.5-48.4,0-72.4Z"/>
        <path class="cls-2" d="M456.9,216.5c0-22.9-2.9-45.5,15.9-63.2,21.4-20.1,58.5-20,79.8.2,18.2,17.3,14.4,40.8,14.3,62.9h0c-35.5.2-71.4.7-106.9,0h-3.1Z"/>
        <path class="cls-2" d="M140.7,910.7h743.6v87.8H140.7v-87.8Z"/>
        <path class="cls-1" d="M456.9,819.4c7-1.9,15.6-.1,22.9,0h40.2c11.4,0,38.9-2,48.7,0h141.1c5.3.2,11,.8,16.2,0,14.4,0,30.2-2.2,44.3,0,12.1.5,24.3,0,36.4,0h58.9c11.5-.1,28.9-1.8,39.7,1,29.6,7.5,39.5,55.2,16.8,78.3-11.7,11.9-23.6,11-37.9,12H140.7v13.5c-.4-4.4,0-9,0-13.5-15.3-.1-28.5.8-40.4-12.5-22.3-25-11.4-70.2,18.1-77.6,12.1-3,34.5-1.2,47.6-1.2h89.7c8.1-1,35-1.3,42.8,0,5.7.6,11.6,0,17.3,0h141.1Z"/>
        <path class="cls-1" d="M511,26.2c7,0,21.6-1.5,27.9,0,18.2,1.1,36.8,0,55,0h89.6c17.2,0,40-2.2,56.4,2.3,36.5,10,60.1,49.2,59.9,92.9v1.8c-46.5,0-93.1.6-139.6,0-.5,74.1-27.8,80.5-83,80.8.5,8.7.7,17.1,0,25.8.2-8.7.3-17.1,0-25.8h-108c-7.1,0-14.5-.6-21.6,0-52.6,1.6-84-11.1-80.6-80.8h-141.2c-.9-45,27.2-83.9,63.4-94.3,17.2-4.9,41.9-2.7,59.9-2.7h81.6s55.2,0,55.2,0c8-.5,17-.7,25,0h0Z"/>
        <line class="cls-3" x1="243.8" y1="138.4" x2="243.8" y2="387.6"/>
        <line class="cls-3" x1="298.6" y1="294.6" x2="298.6" y2="543.8"/>
        <line class="cls-3" x1="361.9" y1="202" x2="361.9" y2="451.3"/>
        <line class="cls-3" x1="333.3" y1="484.7" x2="333.3" y2="733.9"/>
        <line class="cls-3" x1="265" y1="399.5" x2="265" y2="648.7"/>
        <line class="cls-3" x1="298.6" y1="149.9" x2="298.6" y2="228.2"/>
        <line class="cls-3" x1="361.9" y1="524.1" x2="361.9" y2="602.4"/>
        <line class="cls-3" x1="784.9" y1="143.3" x2="784.9" y2="392.5"/>
        <line class="cls-3" x1="730.2" y1="299.5" x2="730.2" y2="548.7"/>
        <line class="cls-3" x1="666.9" y1="206.9" x2="666.9" y2="456.2"/>
        <line class="cls-3" x1="695.5" y1="489.6" x2="695.5" y2="738.8"/>
        <line class="cls-3" x1="763.8" y1="404.3" x2="763.8" y2="653.6"/>
        <line class="cls-3" x1="730.2" y1="154.8" x2="730.2" y2="233.1"/>
        <line class="cls-3" x1="666.9" y1="529" x2="666.9" y2="607.3"/>
      </g>
    </g>
  </g>
</svg>